<svg width="24" height="24" viewBox="0 0 24 24" fill="none" xmlns="http://www.w3.org/2000/svg">
<path d="M3.74238 20.555C4.94238 22 7.17438 22 11.6404 22H12.3604C16.8264 22 19.0594 22 20.2594 20.555M3.74238 20.555C2.54238 19.109 2.95438 16.915 3.77738 12.525C4.36238 9.405 4.65438 7.844 5.76538 6.922M20.2594 20.555C21.4594 19.109 21.0474 16.915 20.2244 12.525C19.6394 9.405 19.3464 7.844 18.2354 6.922M18.2354 6.922C17.1254 6 15.5364 6 12.3614 6H11.6394C8.46438 6 6.87638 6 5.76538 6.922" stroke="white" stroke-width="2"/>
<path d="M9 6V5C9 4.20435 9.31607 3.44129 9.87868 2.87868C10.4413 2.31607 11.2044 2 12 2C12.7956 2 13.5587 2.31607 14.1213 2.87868C14.6839 3.44129 15 4.20435 15 5V6" stroke="white" stroke-width="2" stroke-linecap="round"/>
</svg>
