<svg width="70" height="70" viewBox="0 0 70 70" fill="none" xmlns="http://www.w3.org/2000/svg">
<path d="M63.2552 48.1464C63.255 52.0798 61.911 55.8951 59.4458 58.9602C56.9806 62.0253 53.5423 64.1563 49.7004 65L47.8655 59.4953C49.546 59.2191 51.1442 58.5733 52.5448 57.6044C53.9453 56.6355 55.1133 55.3678 55.9644 53.8927H48.875C47.3495 53.8927 45.8864 53.2867 44.8077 52.208C43.7289 51.1292 43.1229 49.6662 43.1229 48.1406V36.6365C43.1229 35.1109 43.7289 33.6479 44.8077 32.5691C45.8864 31.4904 47.3495 30.8844 48.875 30.8844H57.3248C56.623 25.3247 53.9165 20.2122 49.7132 16.5061C45.5098 12.8001 40.0986 10.7552 34.4948 10.7552C28.891 10.7552 23.4797 12.8001 19.2764 16.5061C15.0731 20.2122 12.3666 25.3247 11.6648 30.8844H20.1146C21.6401 30.8844 23.1032 31.4904 24.1819 32.5691C25.2606 33.6479 25.8667 35.1109 25.8667 36.6365V48.1406C25.8667 49.6662 25.2606 51.1292 24.1819 52.208C23.1032 53.2867 21.6401 53.8927 20.1146 53.8927H11.4865C9.96091 53.8927 8.49785 53.2867 7.41912 52.208C6.3404 51.1292 5.73438 49.6662 5.73438 48.1406V33.7604C5.73438 17.876 18.6104 5 34.4948 5C50.3792 5 63.2552 17.876 63.2552 33.7604V48.1464ZM57.5031 48.1406V36.6365H48.875V48.1406H57.5031ZM11.4865 36.6365V48.1406H20.1146V36.6365H11.4865Z" fill="#432818"/>
</svg>
