<svg width="70" height="70" viewBox="0 0 70 70" fill="none" xmlns="http://www.w3.org/2000/svg">
<path d="M35 61.2491L58.7154 48.9758C59.6371 48.4974 60.0979 48.2612 60.4333 47.9083C60.7304 47.5985 60.9555 47.2271 61.0925 46.8204C61.25 46.3566 61.25 45.8404 61.25 44.802V21.9704M35 61.2491L11.2846 48.9758C10.3629 48.4974 9.90208 48.2612 9.56667 47.9083C9.26958 47.5985 9.0445 47.2271 8.9075 46.8204C8.75 46.3566 8.75 45.8374 8.75 44.7962V21.9704M35 61.2491V34.8154M61.25 21.9704L35 34.8154M61.25 21.9704L48.125 15.1745M8.75 21.9704L32.8679 9.48994C33.6496 9.08744 34.0375 8.88327 34.4487 8.80452C34.8129 8.73443 35.1871 8.73443 35.5513 8.80452C35.9596 8.88327 36.3504 9.08744 37.1292 9.48994L48.125 15.1745M8.75 21.9704L21.875 28.3958M35 34.8154L21.875 28.3929M48.125 15.1745L21.875 28.3929M21.875 28.3929V34.8154" stroke="#432818" stroke-width="4.5" stroke-linecap="round" stroke-linejoin="round"/>
</svg>
