<svg width="70" height="70" viewBox="0 0 70 70" fill="none" xmlns="http://www.w3.org/2000/svg">
<path d="M43.7448 11.666C45.2919 11.666 46.7756 12.2806 47.8696 13.3746C48.9635 14.4685 49.5781 15.9523 49.5781 17.4993V20.416H54.0115C54.8858 20.4161 55.7489 20.6128 56.537 20.9914C57.325 21.3701 58.0179 21.921 58.5644 22.6035L62.881 28.0023C63.7097 29.0368 64.1612 30.3226 64.1615 31.6481V43.7494C64.1615 45.2964 63.5469 46.7802 62.4529 47.8741C61.3589 48.9681 59.8752 49.5827 58.3281 49.5827C58.3281 51.9033 57.4062 54.1289 55.7653 55.7699C54.1244 57.4108 51.8988 58.3327 49.5781 58.3327C47.2575 58.3327 45.0319 57.4108 43.3909 55.7699C41.75 54.1289 40.8281 51.9033 40.8281 49.5827H29.1615C29.1615 50.7318 28.9351 51.8696 28.4954 52.9312C28.0557 53.9928 27.4112 54.9574 26.5986 55.7699C25.7861 56.5824 24.8215 57.2269 23.7599 57.6666C22.6983 58.1064 21.5605 58.3327 20.4115 58.3327C19.2624 58.3327 18.1246 58.1064 17.063 57.6666C16.0014 57.2269 15.0368 56.5824 14.2243 55.7699C13.4118 54.9574 12.7672 53.9928 12.3275 52.9312C11.8878 51.8696 11.6615 50.7318 11.6615 49.5827C10.1144 49.5827 8.63063 48.9681 7.53667 47.8741C6.44271 46.7802 5.82813 45.2964 5.82812 43.7494V17.4993C5.82812 15.9523 6.44271 14.4685 7.53667 13.3746C8.63063 12.2806 10.1144 11.666 11.6615 11.666H43.7448ZM20.4115 46.666C19.6379 46.666 18.896 46.9733 18.3491 47.5203C17.8021 48.0673 17.4948 48.8091 17.4948 49.5827C17.4948 50.3562 17.8021 51.0981 18.3491 51.6451C18.896 52.1921 19.6379 52.4994 20.4115 52.4994C21.185 52.4994 21.9269 52.1921 22.4739 51.6451C23.0208 51.0981 23.3281 50.3562 23.3281 49.5827C23.3281 48.8091 23.0208 48.0673 22.4739 47.5203C21.9269 46.9733 21.185 46.666 20.4115 46.666ZM49.5781 46.666C48.8046 46.666 48.0627 46.9733 47.5157 47.5203C46.9687 48.0673 46.6615 48.8091 46.6615 49.5827C46.6615 50.3562 46.9687 51.0981 47.5157 51.6451C48.0627 52.1921 48.8046 52.4994 49.5781 52.4994C50.3517 52.4994 51.0935 52.1921 51.6405 51.6451C52.1875 51.0981 52.4948 50.3562 52.4948 49.5827C52.4948 48.8091 52.1875 48.0673 51.6405 47.5203C51.0935 46.9733 50.3517 46.666 49.5781 46.666ZM43.7448 17.4993H11.6615V43.7494H13.8898C14.6786 42.8654 15.6389 42.151 16.7123 41.6496C17.7858 41.1481 18.9499 40.8702 20.1341 40.8325C21.3183 40.7949 22.4977 40.9983 23.6008 41.4306C24.7039 41.8628 25.7077 42.5148 26.551 43.3469L26.9331 43.7494H43.0565L43.3919 43.3964L43.7448 43.061V17.4993ZM54.0115 26.2494H49.5781V40.8327C51.9698 40.8327 54.1369 41.7952 55.7177 43.3469L56.0998 43.7494H58.3281V31.6452L54.0115 26.2494Z" fill="#432818"/>
</svg>
