<svg width="95" height="55" viewBox="0 0 95 55" fill="none" xmlns="http://www.w3.org/2000/svg">
<path d="M59.1387 5.39258C59.1387 5.39258 62.2573 10.0794 61.6816 13.2373C61.26 15.5505 59.1638 16.8827 58.0732 17.4307C57.554 18.7366 56.9413 19.9352 56.2627 21.0371C58.3884 19.5762 61.0147 18.4567 63.2393 18.9141C61.0129 20.1777 61.7797 23.8105 57.6338 24.5215C55.4355 24.8984 54.5756 24.3868 54.2529 23.8232C52.8614 25.4789 51.3275 26.8439 49.7949 27.9668C52.2113 27.3386 54.9143 27.4109 56.6143 28.3086C54.7209 29.3476 53.0804 32.139 50.4297 31.4248C48.6948 30.9575 47.8802 30.0444 47.5234 29.4697C47.3351 29.5818 47.1487 29.6918 46.9629 29.7969C41.0789 33.1245 35.4562 33.798 35.2168 33.8252C35.1953 33.8279 35.1744 33.8291 35.1533 33.8291C34.8678 33.8291 34.6224 33.6083 34.5898 33.3096C34.5551 32.9891 34.7796 32.7003 35.0908 32.6641C35.1291 32.6595 37.7535 32.3415 41.2256 31.1152C42.0999 28.6495 40.7605 24.523 45.1279 22.5977C44.7587 24.4966 46.7879 28.0597 44.5498 29.7412C45.1758 29.4417 45.8117 29.1154 46.4473 28.7549C48.0672 27.836 49.528 26.8125 50.8311 25.6895C50.162 25.3705 49.1922 24.5996 48.9111 22.7646C48.4699 19.8769 51.4997 18.5178 50.3008 15.7148C53.3113 18.7385 52.6398 22.6223 52.0049 24.6094C54.3535 22.2951 56.092 19.5967 57.2188 16.5293C56.7883 13.5901 56.6924 10.6203 57.748 8.79688C58.9435 6.73075 59.1375 5.40046 59.1387 5.39258ZM45.7285 8.76758C49.4473 8.76766 52.9294 10.2722 55.5322 13.0039C55.7518 13.2345 55.7472 13.6042 55.5234 13.8301C55.3 14.0559 54.9411 14.0527 54.7207 13.8223C52.3329 11.3164 49.1399 9.93652 45.7285 9.93652C38.7854 9.93656 33.1369 15.7462 33.1367 22.8877C33.1367 25.5307 33.9051 28.0729 35.3594 30.2383C35.5376 30.5039 35.4721 30.8674 35.2139 31.0508C35.1147 31.1209 35.002 31.1543 34.8906 31.1543C34.7109 31.1542 34.5339 31.0665 34.4238 30.9023C32.8378 28.5406 32 25.7691 32 22.8877C32.0002 15.1019 38.159 8.76758 45.7285 8.76758ZM49.2803 4.77539L45.6357 8.11133L42.1797 4.77539H49.2803ZM49.2803 3.85059H42.1797L43.8525 2H47.6475L49.2803 3.85059Z" fill="white"/>
<path d="M1.21094 38.3867L1.20312 38.0117C2.01042 38.0117 2.60156 37.9909 2.97656 37.9492C3.1224 37.9336 3.22396 37.9258 3.28125 37.9258C3.32812 37.9258 3.39844 37.9284 3.49219 37.9336C3.71094 38.1159 3.91406 38.3242 4.10156 38.5586C4.14323 38.6055 4.1901 38.6576 4.24219 38.7148L5.89062 40.5352L6.125 40.8164C6.45833 41.207 6.76042 41.5404 7.03125 41.8164C7.30729 42.0924 7.84115 42.668 8.63281 43.543L10.5 45.6133C10.6823 45.8164 10.9167 46.069 11.2031 46.3711L11.2109 46.2461C11.1797 45.5221 11.1641 45.1393 11.1641 45.0977L11.1953 44.6289L11.1797 43.8945V43.5586C11.1797 43.3451 11.1615 42.6862 11.125 41.582C11.1198 41.431 11.099 41.1471 11.0625 40.7305C11.026 40.3086 11.0078 39.9388 11.0078 39.6211C11.0078 39.0482 10.974 38.7148 10.9062 38.6211C10.8594 38.5534 10.638 38.4831 10.2422 38.4102C10.1484 38.4049 10.0026 38.3893 9.80469 38.3633C9.57031 38.3529 9.43229 38.3398 9.39062 38.3242C9.34896 38.3086 9.30729 38.2643 9.26562 38.1914C9.27604 38.1081 9.29948 38.0299 9.33594 37.957C9.47656 37.9154 9.61458 37.8945 9.75 37.8945C9.89583 37.8945 10.0755 37.9128 10.2891 37.9492C10.5078 37.9857 10.7031 38.0039 10.875 38.0039C11.1146 38.0039 11.487 37.9883 11.9922 37.957C12.2786 37.9362 12.4766 37.9258 12.5859 37.9258H12.7188L12.7031 38.168C12.6198 38.2044 12.5052 38.2279 12.3594 38.2383C12.2135 38.2435 12.0781 38.2643 11.9531 38.3008C11.7656 38.3581 11.6536 38.4076 11.6172 38.4492C11.4922 38.5846 11.4297 38.7227 11.4297 38.8633L11.5156 41.332L11.5781 42.4648L11.5703 42.793L11.6172 44.3633C11.6484 45.4362 11.6641 46.3685 11.6641 47.1602C11.6641 47.332 11.6536 47.7044 11.6328 48.2773L11.2656 48.3086C11.0833 48.1003 10.4557 47.444 9.38281 46.3398C9.13281 46.0846 8.96354 45.9049 8.875 45.8008L8.20312 45.0273C7.94271 44.7409 7.77344 44.5586 7.69531 44.4805C7.61719 44.4023 7.5599 44.3451 7.52344 44.3086C6.95573 43.6628 6.21875 42.8555 5.3125 41.8867C5.06771 41.6263 4.70833 41.2201 4.23438 40.668C3.9375 40.319 3.75 40.1055 3.67188 40.0273C3.59375 39.9492 3.48698 39.8607 3.35156 39.7617L3.32812 40.0273C3.32812 41.043 3.35417 42.444 3.40625 44.2305L3.46094 46.8164C3.46615 47.0352 3.47917 47.2461 3.5 47.4492L3.77344 47.5117C4.26823 47.5586 4.75521 47.6289 5.23438 47.7227C5.27083 47.7539 5.30208 47.7773 5.32812 47.793L5.32031 48.0898C5.23698 48.1159 5.16927 48.1289 5.11719 48.1289C5.0599 48.1289 4.98958 48.1237 4.90625 48.1133C4.39062 48.0716 3.76302 48.0508 3.02344 48.0508C2.5026 48.0508 2.04427 48.0638 1.64844 48.0898L1.53906 48.0977C1.49219 48.0977 1.42448 48.0924 1.33594 48.082L1.32812 47.8477L1.53125 47.7539L1.89844 47.6992C2.22656 47.6523 2.46615 47.6003 2.61719 47.543C2.71615 47.5065 2.79688 47.4518 2.85938 47.3789C2.91667 47.0195 2.94531 46.4935 2.94531 45.8008C2.94531 45.4779 2.9375 44.8867 2.92188 44.0273V42.9648L2.90625 40.7461C2.89583 39.7565 2.86198 39.1732 2.80469 38.9961C2.77344 38.9023 2.70833 38.819 2.60938 38.7461C2.41146 38.6055 2.15104 38.5169 1.82812 38.4805C1.51042 38.444 1.30469 38.4128 1.21094 38.3867ZM13.9141 44.8008C13.9141 44.4466 13.987 44.069 14.1328 43.668C14.2839 43.2617 14.5104 42.8997 14.8125 42.582C15.1146 42.2591 15.4349 42.0195 15.7734 41.8633C16.2474 41.6445 16.8255 41.5352 17.5078 41.5352C18.4818 41.5352 19.2943 41.8685 19.9453 42.5352C20.6016 43.2018 20.9297 44.0039 20.9297 44.9414C20.9297 45.7747 20.5859 46.5195 19.8984 47.1758C19.2161 47.8268 18.3516 48.1523 17.3047 48.1523C16.6589 48.1523 16.0495 47.9831 15.4766 47.6445C15.0495 47.3893 14.6823 47.0117 14.375 46.5117C14.0677 46.0117 13.9141 45.4414 13.9141 44.8008ZM17.3672 47.8477C17.763 47.8477 18.1432 47.7409 18.5078 47.5273C18.8776 47.3138 19.1719 46.9727 19.3906 46.5039C19.6094 46.0299 19.7188 45.4831 19.7188 44.8633C19.7188 44.457 19.6328 43.9857 19.4609 43.4492C19.2943 42.9128 19.0339 42.5117 18.6797 42.2461C18.3307 41.9753 17.9193 41.8398 17.4453 41.8398C17.1016 41.8398 16.75 41.9206 16.3906 42.082C16.0365 42.2435 15.7344 42.5534 15.4844 43.0117C15.2396 43.4701 15.1172 44.1211 15.1172 44.9648C15.1172 45.9128 15.3307 46.6315 15.7578 47.1211C16.1901 47.6055 16.7266 47.8477 17.3672 47.8477ZM21.7734 41.8086H22.3594L22.6172 41.8242L22.8203 41.8086C23.3568 41.8086 23.6901 41.8138 23.8203 41.8242L23.8281 41.9727C23.8281 42.707 23.8177 43.418 23.7969 44.1055C23.7812 44.5117 23.7734 44.7435 23.7734 44.8008C23.7734 45.7174 23.8021 46.2904 23.8594 46.5195C23.9219 46.7487 24.0625 46.9336 24.2812 47.0742C24.5052 47.2096 24.7734 47.2773 25.0859 47.2773C25.4661 47.2773 25.8281 47.1992 26.1719 47.043C26.5208 46.8815 26.8177 46.6862 27.0625 46.457C27.0885 46.2591 27.1016 46.0404 27.1016 45.8008C27.1016 45.0247 27.1094 44.5013 27.125 44.2305C27.1302 44.069 27.1328 43.9284 27.1328 43.8086C27.1328 42.9648 27.0911 42.4883 27.0078 42.3789C26.9245 42.2695 26.6068 42.1862 26.0547 42.1289C25.8724 42.1081 25.7396 42.0898 25.6562 42.0742C25.6146 42.0065 25.5938 41.9544 25.5938 41.918L25.6172 41.832C25.7526 41.8164 25.8854 41.8086 26.0156 41.8086L27.2578 41.8242C27.7005 41.8138 27.9349 41.8086 27.9609 41.8086C28.0182 41.8086 28.0729 41.8112 28.125 41.8164L28.1406 42.3867C28.1042 43.1784 28.0833 44.1576 28.0781 45.3242L28.0625 45.957L28.0938 47.0195C28.1406 47.1029 28.1823 47.1523 28.2188 47.168C28.2812 47.194 28.4089 47.207 28.6016 47.207H28.6719C28.7396 47.207 28.9323 47.2227 29.25 47.2539C29.2552 47.3216 29.2578 47.3711 29.2578 47.4023V47.4883C28.5599 47.6393 27.9948 47.7904 27.5625 47.9414C27.3906 47.9987 27.2448 48.0404 27.125 48.0664C27.099 47.8841 27.0859 47.7721 27.0859 47.7305V47.0977C27.0859 47.0716 27.0833 47.0013 27.0781 46.8867C27.0104 46.9336 26.9323 46.9909 26.8438 47.0586C26.4323 47.3763 25.9974 47.6445 25.5391 47.8633C25.2318 48.0143 24.9349 48.0898 24.6484 48.0898C24.1016 48.0898 23.6562 47.8867 23.3125 47.4805C22.9635 47.0742 22.7891 46.3815 22.7891 45.4023C22.7891 45.3503 22.7917 45.2565 22.7969 45.1211C22.8177 44.8711 22.8281 44.6966 22.8281 44.5977C22.8281 44.5612 22.8255 44.4466 22.8203 44.2539C22.8151 44.1706 22.8125 44.0977 22.8125 44.0352C22.8125 43.9883 22.8151 43.8841 22.8203 43.7227C22.8255 43.556 22.8281 43.4388 22.8281 43.3711C22.8281 43.2826 22.8255 43.2044 22.8203 43.1367L22.8047 42.7227L22.8125 42.5039C22.8125 42.4206 22.7708 42.3451 22.6875 42.2773C22.3594 42.1888 22.1432 42.1393 22.0391 42.1289C21.9401 42.1133 21.8516 42.0898 21.7734 42.0586V41.8086ZM29.6797 47.9648L29.6484 47.8633C29.6484 47.8268 29.6719 47.7721 29.7188 47.6992L30.1797 47.6055L30.8281 47.4883C30.8802 47.4622 30.9167 47.4258 30.9375 47.3789C30.9688 47.3112 30.9844 47.1107 30.9844 46.7773C30.9844 45.0065 30.974 43.9857 30.9531 43.7148C30.9323 43.4388 30.8854 43.2643 30.8125 43.1914C30.7396 43.1185 30.5521 43.0612 30.25 43.0195C30.0729 42.9935 29.9323 42.9596 29.8281 42.918L29.8594 42.6836C30.4062 42.4596 30.7734 42.2669 30.9609 42.1055C31.2214 41.8711 31.4427 41.5638 31.625 41.1836L31.8906 41.1914C31.9219 41.4518 31.9375 42.0299 31.9375 42.9258L31.9297 43.0586C31.9297 43.0898 31.9349 43.1393 31.9453 43.207C32.1432 42.8477 32.3906 42.5169 32.6875 42.2148L32.8672 42.0352C32.9401 41.9518 33.0104 41.8867 33.0781 41.8398C33.4427 41.6211 33.7135 41.5117 33.8906 41.5117C34.1198 41.5117 34.3073 41.5898 34.4531 41.7461C34.599 41.8971 34.6719 42.0846 34.6719 42.3086C34.6719 42.4857 34.6198 42.6237 34.5156 42.7227C34.375 42.8529 34.2135 42.918 34.0312 42.918C33.9479 42.918 33.7839 42.8737 33.5391 42.7852C33.2943 42.6966 33.1328 42.6523 33.0547 42.6523C32.9089 42.6523 32.8073 42.6758 32.75 42.7227C32.6042 42.8372 32.4271 43.0716 32.2188 43.4258C32.0573 43.6914 31.9766 43.9362 31.9766 44.1602L32.0156 45.4492L32.0312 46.9961C32.0469 47.1732 32.0677 47.2878 32.0938 47.3398C32.1146 47.3763 32.1667 47.4206 32.25 47.4727C32.8125 47.5195 33.1458 47.5534 33.25 47.5742C33.3229 47.5794 33.3776 47.5846 33.4141 47.5898C33.638 47.5951 33.7943 47.6263 33.8828 47.6836C33.9297 47.7096 33.9531 47.7487 33.9531 47.8008C33.9531 47.832 33.9323 47.8737 33.8906 47.9258L33.0234 47.918L32.6953 47.9102L32.2188 47.918H31.4219L30.9922 47.9414L29.6797 47.9648ZM41.0547 46.8789C41.0859 46.9466 41.1016 46.9961 41.1016 47.0273C41.1016 47.1055 41.0391 47.2435 40.9141 47.4414C40.7526 47.7018 40.5729 47.8919 40.375 48.0117C40.25 48.0898 40.0781 48.1289 39.8594 48.1289C39.4844 48.1289 39.2031 48.0143 39.0156 47.7852C38.901 47.6497 38.8203 47.4076 38.7734 47.0586L37.8984 47.668C37.5911 47.8451 37.3568 47.957 37.1953 48.0039C36.9349 48.0716 36.6224 48.1055 36.2578 48.1055C35.9922 48.1055 35.7812 48.0273 35.625 47.8711C35.474 47.7096 35.3984 47.5039 35.3984 47.2539C35.3984 46.8945 35.6172 46.4648 36.0547 45.9648C36.4974 45.4648 37.0964 45.056 37.8516 44.7383C38.3828 44.5143 38.7083 44.3711 38.8281 44.3086C38.8385 44.1367 38.8438 43.9492 38.8438 43.7461C38.8438 43.0846 38.75 42.6367 38.5625 42.4023C38.3802 42.168 38.1172 42.0508 37.7734 42.0508C37.4141 42.0508 37.0781 42.1914 36.7656 42.4727C36.5729 42.6497 36.4271 42.9831 36.3281 43.4727C36.2969 43.6081 36.237 43.7539 36.1484 43.9102C35.9245 44.056 35.7448 44.1289 35.6094 44.1289C35.4948 44.1289 35.3906 44.0951 35.2969 44.0273C35.2448 43.9909 35.2188 43.9492 35.2188 43.9023C35.2188 43.7669 35.362 43.4622 35.6484 42.9883C35.9401 42.5091 36.3047 42.1523 36.7422 41.918C37.1849 41.6784 37.5703 41.5586 37.8984 41.5586C38.3464 41.5586 38.6797 41.6003 38.8984 41.6836C39.1172 41.7617 39.3099 41.9023 39.4766 42.1055C39.6432 42.3086 39.7448 42.5299 39.7812 42.7695C39.8021 42.8841 39.8125 43.293 39.8125 43.9961L39.7891 45.2383L39.7969 46.1445C39.7969 46.2643 39.7943 46.3659 39.7891 46.4492C39.7839 46.6003 39.7812 46.7122 39.7812 46.7852C39.7812 46.957 39.8307 47.0951 39.9297 47.1992C40.0286 47.3034 40.1458 47.3555 40.2812 47.3555C40.4792 47.3555 40.6484 47.2565 40.7891 47.0586L40.8828 46.9336C40.9089 46.918 40.9661 46.8997 41.0547 46.8789ZM38.7578 46.6523C38.7943 45.9909 38.8125 45.5247 38.8125 45.2539C38.8125 45.1133 38.8047 44.9232 38.7891 44.6836C38.4401 44.8086 38.0703 44.9987 37.6797 45.2539C37.2891 45.5091 36.9792 45.8034 36.75 46.1367C36.5833 46.3763 36.5 46.6029 36.5 46.8164C36.5 47.0195 36.5677 47.1888 36.7031 47.3242C36.8438 47.4596 37.0182 47.5273 37.2266 47.5273C37.388 47.5273 37.5833 47.4701 37.8125 47.3555C38.1146 47.2044 38.4297 46.9701 38.7578 46.6523ZM48.1328 50.7852C48.2318 50.7174 48.3203 50.6836 48.3984 50.6836C48.638 50.6836 48.9115 50.8216 49.2188 51.0977C49.2708 51.1445 49.3099 51.1784 49.3359 51.1992L49.375 51.2383C49.5 51.3424 49.6302 51.3945 49.7656 51.3945C49.9635 51.3945 50.1615 51.3268 50.3594 51.1914C50.5573 51.056 50.7161 50.8685 50.8359 50.6289C50.9974 50.2956 51.1146 49.9206 51.1875 49.5039C51.2656 49.0872 51.3047 48.582 51.3047 47.9883L51.2969 46.7695L51.3125 45.9336C51.3125 45.3659 51.2917 44.4909 51.25 43.3086L51.2031 40.3867L51.2109 38.8789C51.2161 38.7435 51.1927 38.6263 51.1406 38.5273C51.1094 38.4753 51.0521 38.4284 50.9688 38.3867C50.8906 38.3451 50.776 38.3216 50.625 38.3164L50.0469 38.2773C49.8646 38.2773 49.7396 38.2591 49.6719 38.2227C49.651 38.1445 49.6406 38.0846 49.6406 38.043L49.6484 37.9492C49.763 37.9492 49.9036 37.9544 50.0703 37.9648C50.3932 37.9805 50.7083 37.9883 51.0156 37.9883C51.1615 37.9883 51.3542 37.9857 51.5938 37.9805C51.776 37.9701 51.9036 37.9648 51.9766 37.9648H53.125C53.2865 37.9648 53.4609 37.9727 53.6484 37.9883C53.6484 38.1081 53.6432 38.2018 53.6328 38.2695C53.1849 38.2904 52.901 38.3216 52.7812 38.3633C52.6615 38.4049 52.5729 38.4622 52.5156 38.5352C52.4792 38.582 52.4609 38.6732 52.4609 38.8086L52.4297 39.6211L52.4375 39.8164C52.4479 39.9102 52.4531 40.0898 52.4531 40.3555V40.668C52.4531 40.8503 52.4557 41.0117 52.4609 41.1523C52.4714 41.3607 52.4766 41.4857 52.4766 41.5273C52.4766 41.5742 52.4714 41.6966 52.4609 41.8945C52.4557 41.9518 52.4531 42.0013 52.4531 42.043L52.5469 44.2148L52.5312 45.6133V46.5195C52.5312 47.0404 52.4323 47.7669 52.2344 48.6992C52.0885 49.3763 51.8255 49.9909 51.4453 50.543C51.0651 51.1003 50.6901 51.4805 50.3203 51.6836C49.9505 51.8867 49.4583 51.9883 48.8438 51.9883C48.5156 51.9883 48.2526 51.9102 48.0547 51.7539C47.9193 51.6445 47.8516 51.4987 47.8516 51.3164C47.8516 51.0977 47.9453 50.9206 48.1328 50.7852ZM60.2344 43.8164L57.1016 43.8398H56.5078C56.2682 43.8398 56.0234 43.8503 55.7734 43.8711C55.7266 44.0273 55.7031 44.1341 55.7031 44.1914L55.7109 44.2695V44.3477L55.7031 44.7305C55.7031 45.0482 55.8021 45.4388 56 45.9023C56.2031 46.3607 56.4896 46.7122 56.8594 46.957C57.2344 47.1966 57.7005 47.3242 58.2578 47.3398C58.5547 47.3242 58.7917 47.2878 58.9688 47.2305C59.1458 47.1732 59.3958 47.0404 59.7188 46.832L60.2812 46.3711L60.3281 46.6836C60.3281 46.7201 60.3255 46.7591 60.3203 46.8008C60.0859 47.0977 59.7891 47.3581 59.4297 47.582C59.0703 47.806 58.7057 47.9701 58.3359 48.0742C58.1589 48.1211 57.8672 48.1445 57.4609 48.1445C57.0911 48.1445 56.7266 48.069 56.3672 47.918C55.8359 47.6888 55.4167 47.3216 55.1094 46.8164C54.8073 46.306 54.6562 45.6888 54.6562 44.9648C54.6562 44.7357 54.6979 44.4414 54.7812 44.082C54.8698 43.7227 55.026 43.3398 55.25 42.9336C55.401 42.6576 55.5859 42.431 55.8047 42.2539C56.1172 42.0039 56.3906 41.8294 56.625 41.7305C56.9635 41.5898 57.3568 41.5195 57.8047 41.5195C58.2891 41.5195 58.6849 41.6081 58.9922 41.7852C59.4089 42.0195 59.7188 42.3216 59.9219 42.6914C60.1302 43.0612 60.2344 43.3997 60.2344 43.707V43.8164ZM55.875 43.5352H56.2422C56.5078 43.5352 57.2995 43.4935 58.6172 43.4102C58.8255 43.3997 58.9531 43.3789 59 43.3477C59.0938 43.2487 59.1406 43.1602 59.1406 43.082C59.1406 42.9206 59.0885 42.7383 58.9844 42.5352C58.8802 42.3268 58.7188 42.168 58.5 42.0586C58.2865 41.944 58.0365 41.8867 57.75 41.8867C57.1458 41.8867 56.6615 42.1133 56.2969 42.5664C56.0156 42.9102 55.875 43.2331 55.875 43.5352ZM60.5547 41.7852L63.5547 41.793C63.612 41.793 63.651 41.8034 63.6719 41.8242C63.6927 41.8451 63.7031 41.8763 63.7031 41.918C63.7031 42.0169 63.6641 42.0898 63.5859 42.1367C63.2214 42.1628 62.9948 42.207 62.9062 42.2695C62.8177 42.332 62.7734 42.418 62.7734 42.5273C62.7734 42.5794 62.7786 42.6289 62.7891 42.6758C62.8047 42.7383 62.8802 42.9232 63.0156 43.2305C63.1927 43.6419 63.5078 44.3086 63.9609 45.2305L64.8906 47.1211C65.4219 46.194 65.8516 45.332 66.1797 44.5352L65.7031 43.2852C65.651 43.1706 65.5833 42.9987 65.5 42.7695C65.4219 42.5404 65.3594 42.4076 65.3125 42.3711C65.2708 42.3294 65.112 42.2695 64.8359 42.1914C64.5599 42.1133 64.3958 42.0534 64.3438 42.0117L64.3359 41.957C64.3359 41.9258 64.3516 41.8815 64.3828 41.8242C64.5078 41.793 64.6068 41.7773 64.6797 41.7773L65.125 41.7852H66.1016L66.3984 41.7773L67.3594 41.793C67.4375 41.793 67.5026 41.7904 67.5547 41.7852H67.6875C67.7188 41.7852 67.763 41.7878 67.8203 41.793L67.8047 42.043C67.7266 42.0898 67.5964 42.1237 67.4141 42.1445C67.0703 42.181 66.8073 42.2461 66.625 42.3398C66.5677 42.4023 66.5391 42.457 66.5391 42.5039C66.5391 42.6185 66.5703 42.7617 66.6328 42.9336C66.6536 42.9857 66.7083 43.1471 66.7969 43.418L67.6328 45.6211C67.8776 46.2773 68.0651 46.7357 68.1953 46.9961C68.4141 46.5951 68.7214 45.8737 69.1172 44.832C69.2578 44.4674 69.4453 44.0326 69.6797 43.5273C69.8307 43.2096 69.9062 42.9362 69.9062 42.707C69.9062 42.5872 69.862 42.4857 69.7734 42.4023C69.6849 42.319 69.4792 42.2409 69.1562 42.168C68.9635 42.1263 68.8203 42.0872 68.7266 42.0508C68.7005 42.0091 68.6875 41.9753 68.6875 41.9492C68.6875 41.9023 68.7161 41.8503 68.7734 41.793H68.8906L69.5234 41.7852C69.5495 41.7852 69.6693 41.7904 69.8828 41.8008C70.0964 41.806 70.3047 41.8086 70.5078 41.8086C70.6641 41.8086 70.8438 41.8034 71.0469 41.793H71.4375C71.4688 41.8034 71.4896 41.8164 71.5 41.832C71.5156 41.8477 71.5234 41.8737 71.5234 41.9102C71.5234 41.9674 71.5156 42.0299 71.5 42.0977C71.2448 42.1289 71.0443 42.1888 70.8984 42.2773C70.7526 42.3607 70.5547 42.5951 70.3047 42.9805L68.9062 46.3398C68.776 46.6523 68.5495 47.1315 68.2266 47.7773C68.1589 47.9128 68.1068 48.0221 68.0703 48.1055C68.0391 48.1888 68.0078 48.2435 67.9766 48.2695C67.9453 48.2956 67.9036 48.3086 67.8516 48.3086C67.8151 48.3086 67.7656 48.2982 67.7031 48.2773C67.5573 47.9909 67.2344 47.2018 66.7344 45.9102C66.599 45.5612 66.474 45.2643 66.3594 45.0195C65.5052 46.7956 64.9453 47.8867 64.6797 48.293C64.6068 48.3034 64.5521 48.3086 64.5156 48.3086C64.4792 48.3086 64.4271 48.3034 64.3594 48.293L62.8828 45.207L61.5312 42.5664C61.4375 42.4049 61.3646 42.306 61.3125 42.2695C61.224 42.2122 61.0677 42.1654 60.8438 42.1289C60.7188 42.1081 60.6224 42.0924 60.5547 42.082C60.5495 42.0039 60.5469 41.944 60.5469 41.9023C60.5469 41.8763 60.5495 41.8372 60.5547 41.7852ZM77.3594 43.8164L74.2266 43.8398H73.6328C73.3932 43.8398 73.1484 43.8503 72.8984 43.8711C72.8516 44.0273 72.8281 44.1341 72.8281 44.1914L72.8359 44.2695V44.3477L72.8281 44.7305C72.8281 45.0482 72.9271 45.4388 73.125 45.9023C73.3281 46.3607 73.6146 46.7122 73.9844 46.957C74.3594 47.1966 74.8255 47.3242 75.3828 47.3398C75.6797 47.3242 75.9167 47.2878 76.0938 47.2305C76.2708 47.1732 76.5208 47.0404 76.8438 46.832L77.4062 46.3711L77.4531 46.6836C77.4531 46.7201 77.4505 46.7591 77.4453 46.8008C77.2109 47.0977 76.9141 47.3581 76.5547 47.582C76.1953 47.806 75.8307 47.9701 75.4609 48.0742C75.2839 48.1211 74.9922 48.1445 74.5859 48.1445C74.2161 48.1445 73.8516 48.069 73.4922 47.918C72.9609 47.6888 72.5417 47.3216 72.2344 46.8164C71.9323 46.306 71.7812 45.6888 71.7812 44.9648C71.7812 44.7357 71.8229 44.4414 71.9062 44.082C71.9948 43.7227 72.151 43.3398 72.375 42.9336C72.526 42.6576 72.7109 42.431 72.9297 42.2539C73.2422 42.0039 73.5156 41.8294 73.75 41.7305C74.0885 41.5898 74.4818 41.5195 74.9297 41.5195C75.4141 41.5195 75.8099 41.6081 76.1172 41.7852C76.5339 42.0195 76.8438 42.3216 77.0469 42.6914C77.2552 43.0612 77.3594 43.3997 77.3594 43.707V43.8164ZM73 43.5352H73.3672C73.6328 43.5352 74.4245 43.4935 75.7422 43.4102C75.9505 43.3997 76.0781 43.3789 76.125 43.3477C76.2188 43.2487 76.2656 43.1602 76.2656 43.082C76.2656 42.9206 76.2135 42.7383 76.1094 42.5352C76.0052 42.3268 75.8438 42.168 75.625 42.0586C75.4115 41.944 75.1615 41.8867 74.875 41.8867C74.2708 41.8867 73.7865 42.1133 73.4219 42.5664C73.1406 42.9102 73 43.2331 73 43.5352ZM78.25 38.2617V38.0898C78.3958 38.043 78.5573 37.9935 78.7344 37.9414C78.9948 37.8581 79.3802 37.7305 79.8906 37.5586H80.2578C80.263 37.8086 80.2656 37.9518 80.2656 37.9883C80.2656 42.2643 80.2526 44.8138 80.2266 45.6367C80.2109 46.1211 80.2031 46.3789 80.2031 46.4102C80.2031 46.9935 80.2266 47.319 80.2734 47.3867C80.3359 47.4805 80.526 47.5456 80.8438 47.582C81.1667 47.6185 81.3568 47.6549 81.4141 47.6914C81.4557 47.7122 81.4766 47.7487 81.4766 47.8008C81.4766 47.8581 81.4635 47.8997 81.4375 47.9258C81.4167 47.9466 81.375 47.957 81.3125 47.957C81.276 47.957 81.0026 47.9492 80.4922 47.9336L79.4688 47.9023L78.1562 47.957C78.0729 47.9622 78.0104 47.9466 77.9688 47.9102C77.9375 47.8841 77.9219 47.8477 77.9219 47.8008C77.9219 47.7487 77.9375 47.7122 77.9688 47.6914C78.0052 47.6654 78.1927 47.6237 78.5312 47.5664C78.875 47.5091 79.0703 47.4622 79.1172 47.4258C79.1693 47.3841 79.2031 47.2956 79.2188 47.1602C79.2396 46.9727 79.25 46.444 79.25 45.5742L79.2422 43.7773L79.2656 41.918L79.2578 40.0586L79.2812 39.1445C79.2812 38.9622 79.2526 38.832 79.1953 38.7539C79.138 38.6706 79.0156 38.5898 78.8281 38.5117C78.5469 38.3971 78.3542 38.3138 78.25 38.2617ZM81.8359 47.9648L81.8047 47.8633C81.8047 47.8268 81.8281 47.7721 81.875 47.6992L82.3359 47.6055L82.9844 47.4883C83.0365 47.4622 83.0729 47.4258 83.0938 47.3789C83.125 47.3112 83.1406 47.1107 83.1406 46.7773C83.1406 45.0065 83.1302 43.9857 83.1094 43.7148C83.0885 43.4388 83.0417 43.2643 82.9688 43.1914C82.8958 43.1185 82.7083 43.0612 82.4062 43.0195C82.2292 42.9935 82.0885 42.9596 81.9844 42.918L82.0156 42.6836C82.5625 42.4596 82.9297 42.2669 83.1172 42.1055C83.3776 41.8711 83.599 41.5638 83.7812 41.1836L84.0469 41.1914C84.0781 41.4518 84.0938 42.0299 84.0938 42.9258L84.0859 43.0586C84.0859 43.0898 84.0911 43.1393 84.1016 43.207C84.2995 42.8477 84.5469 42.5169 84.8438 42.2148L85.0234 42.0352C85.0964 41.9518 85.1667 41.8867 85.2344 41.8398C85.599 41.6211 85.8698 41.5117 86.0469 41.5117C86.276 41.5117 86.4635 41.5898 86.6094 41.7461C86.7552 41.8971 86.8281 42.0846 86.8281 42.3086C86.8281 42.4857 86.776 42.6237 86.6719 42.7227C86.5312 42.8529 86.3698 42.918 86.1875 42.918C86.1042 42.918 85.9401 42.8737 85.6953 42.7852C85.4505 42.6966 85.2891 42.6523 85.2109 42.6523C85.0651 42.6523 84.9635 42.6758 84.9062 42.7227C84.7604 42.8372 84.5833 43.0716 84.375 43.4258C84.2135 43.6914 84.1328 43.9362 84.1328 44.1602L84.1719 45.4492L84.1875 46.9961C84.2031 47.1732 84.224 47.2878 84.25 47.3398C84.2708 47.3763 84.3229 47.4206 84.4062 47.4727C84.9688 47.5195 85.3021 47.5534 85.4062 47.5742C85.4792 47.5794 85.5339 47.5846 85.5703 47.5898C85.7943 47.5951 85.9505 47.6263 86.0391 47.6836C86.0859 47.7096 86.1094 47.7487 86.1094 47.8008C86.1094 47.832 86.0885 47.8737 86.0469 47.9258L85.1797 47.918L84.8516 47.9102L84.375 47.918H83.5781L83.1484 47.9414L81.8359 47.9648ZM87.4219 41.7852C87.5365 41.7747 87.6328 41.7695 87.7109 41.7695H88.0859L88.5938 41.7539L89.2578 41.7773L89.7969 41.7617C90.0833 41.7617 90.3411 41.7799 90.5703 41.8164C90.5911 41.8685 90.6016 41.9102 90.6016 41.9414L90.5938 42.0039C90.4844 42.056 90.3151 42.0924 90.0859 42.1133C89.763 42.1393 89.5312 42.1966 89.3906 42.2852L89.375 42.3711C89.375 42.4232 89.3958 42.5013 89.4375 42.6055C89.4635 42.668 89.4974 42.7617 89.5391 42.8867C89.6536 43.2721 89.901 44.0169 90.2812 45.1211C90.5573 45.918 90.8125 46.6029 91.0469 47.1758C91.1927 46.8633 91.3594 46.4674 91.5469 45.9883L92.2109 44.1367C92.3568 43.7305 92.4688 43.3242 92.5469 42.918C92.5781 42.7565 92.5938 42.6289 92.5938 42.5352C92.5938 42.457 92.5599 42.3841 92.4922 42.3164C92.4245 42.2487 92.2891 42.1914 92.0859 42.1445C91.7161 42.0508 91.5156 41.9935 91.4844 41.9727C91.4531 41.9466 91.4349 41.8945 91.4297 41.8164C91.4609 41.7904 91.4974 41.7695 91.5391 41.7539H92.0234L92.5469 41.7617L93.3281 41.7539L93.8281 41.7617L93.9531 41.7539C93.9896 41.7539 94.0495 41.7591 94.1328 41.7695C94.1849 41.7956 94.2109 41.8372 94.2109 41.8945C94.2109 41.9466 94.1875 41.9935 94.1406 42.0352L93.9844 42.0586C93.6823 42.1003 93.4505 42.1784 93.2891 42.293C93.2005 42.3555 93.125 42.4857 93.0625 42.6836C93.0417 42.7565 93.0078 42.8503 92.9609 42.9648C92.9349 43.0273 92.8958 43.1315 92.8438 43.2773C92.7969 43.4232 92.7344 43.5951 92.6562 43.793L92.5625 44.0117L92.5547 44.0508L91.2266 47.5508L90.2578 50.1836C90.1953 50.3138 90.1224 50.4753 90.0391 50.668C89.8411 51.0378 89.724 51.2409 89.6875 51.2773C89.5312 51.4701 89.3958 51.6055 89.2812 51.6836L88.8828 51.8555C88.8047 51.8763 88.7214 51.8867 88.6328 51.8867C88.3984 51.8867 88.2266 51.8346 88.1172 51.7305C88.0078 51.6315 87.9531 51.4935 87.9531 51.3164C87.9531 51.1497 88.0339 50.9987 88.1953 50.8633C88.2474 50.8477 88.2995 50.8268 88.3516 50.8008L88.4531 50.7773C88.9167 50.8607 89.2057 50.9023 89.3203 50.9023C89.4297 50.8451 89.5104 50.7773 89.5625 50.6992C89.8177 50.319 90.0365 49.8945 90.2188 49.4258C90.401 48.957 90.4922 48.6419 90.4922 48.4805C90.4922 48.3034 90.4245 48.0456 90.2891 47.707L89.4219 45.4102C89.3021 45.1133 88.9453 44.1445 88.3516 42.5039C88.3151 42.3997 88.2682 42.3216 88.2109 42.2695L87.6797 42.0742L87.5156 42.043C87.4271 42.0065 87.3828 41.9544 87.3828 41.8867L87.4219 41.7852Z" fill="white"/>
</svg>
