<svg width="70" height="70" viewBox="0 0 70 70" fill="none" xmlns="http://www.w3.org/2000/svg">
<path d="M35.0052 49.5827C33.4581 49.5827 31.9744 48.9681 30.8804 47.8741C29.7865 46.7802 29.1719 45.2964 29.1719 43.7494C29.1719 40.5118 31.7677 37.916 35.0052 37.916C36.5523 37.916 38.036 38.5306 39.13 39.6246C40.224 40.7185 40.8385 42.2023 40.8385 43.7494C40.8385 45.2964 40.224 46.7802 39.13 47.8741C38.036 48.9681 36.5523 49.5827 35.0052 49.5827ZM52.5052 58.3327V29.166H17.5052V58.3327H52.5052ZM52.5052 23.3327C54.0523 23.3327 55.536 23.9473 56.63 25.0412C57.724 26.1352 58.3385 27.6189 58.3385 29.166V58.3327C58.3385 59.8798 57.724 61.3635 56.63 62.4575C55.536 63.5514 54.0523 64.166 52.5052 64.166H17.5052C15.9581 64.166 14.4744 63.5514 13.3804 62.4575C12.2865 61.3635 11.6719 59.8798 11.6719 58.3327V29.166C11.6719 25.9285 14.2677 23.3327 17.5052 23.3327H20.4219V17.4993C20.4219 13.6316 21.9583 9.92228 24.6932 7.18738C27.4281 4.45247 31.1375 2.91602 35.0052 2.91602C36.9203 2.91602 38.8167 3.29322 40.586 4.02611C42.3553 4.75899 43.963 5.83319 45.3172 7.18738C46.6714 8.54156 47.7456 10.1492 48.4785 11.9185C49.2113 13.6879 49.5885 15.5842 49.5885 17.4993V23.3327H52.5052ZM35.0052 8.74935C32.6846 8.74935 30.459 9.67122 28.818 11.3122C27.1771 12.9531 26.2552 15.1787 26.2552 17.4993V23.3327H43.7552V17.4993C43.7552 15.1787 42.8333 12.9531 41.1924 11.3122C39.5515 9.67122 37.3259 8.74935 35.0052 8.74935Z" fill="#432818"/>
</svg>
